<?xml version="1.0" standalone="no"?>
<!DOCTYPE svg PUBLIC "-//W3C//DTD SVG 20010904//EN"
 "http://www.w3.org/TR/2001/REC-SVG-20010904/DTD/svg10.dtd">
<svg version="1.0" xmlns="http://www.w3.org/2000/svg"
 width="700.000000pt" height="700.000000pt" viewBox="0 0 700.000000 700.000000"
 preserveAspectRatio="xMidYMid meet">
<metadata>
Created by potrace 1.14, written by Peter Selinger 2001-2017
</metadata>
<g transform="translate(0.000000,700.000000) scale(0.100000,-0.100000)"
fill="#000000" stroke="none">
<path d="M357 6218 c-147 -21 -283 -138 -334 -288 l-22 -65 -1 -2346 c0 -1551
3 -2364 10 -2400 30 -160 173 -304 330 -335 51 -10 6246 -11 6305 -1 154 26
287 142 335 294 18 56 19 144 19 2408 1 1879 -2 2362 -12 2411 -31 146 -153
271 -307 315 -36 10 -680 12 -3161 13 -1714 1 -3137 -2 -3162 -6z m1820 -1027
c232 -60 423 -206 542 -414 39 -68 88 -215 97 -292 36 -295 -60 -533 -328
-815 -101 -106 -128 -154 -128 -229 0 -47 4 -57 34 -87 26 -26 43 -34 73 -35
21 0 141 -1 267 -1 126 0 247 -5 270 -10 154 -34 289 -167 322 -318 11 -48 12
-727 2 -767 -18 -69 -138 -137 -334 -188 -124 -32 -319 -66 -464 -81 -25 -2
-61 -6 -81 -8 -204 -24 -748 -24 -949 -1 -19 2 -62 6 -94 10 -61 6 -87 9 -191
26 -78 12 -116 19 -135 24 -8 2 -31 7 -50 10 -139 22 -334 102 -389 159 l-35
36 -1 352 c0 194 3 377 8 407 21 142 131 274 273 326 42 15 89 18 332 21 317
3 331 6 353 73 30 89 2 155 -115 278 -89 93 -182 209 -209 260 -105 200 -132
294 -131 453 1 36 12 144 19 170 58 236 204 435 401 547 38 21 80 44 94 51 41
19 152 51 200 57 25 4 46 8 48 9 1 2 51 2 110 1 70 -2 135 -10 189 -24z m3998
-510 c42 -14 98 -51 128 -86 67 -76 86 -209 43 -300 -35 -76 -116 -143 -194
-160 -19 -4 -473 -7 -1009 -7 -1081 1 -1028 -2 -1105 66 -182 161 -103 454
133 494 22 4 473 7 1002 6 764 0 970 -3 1002 -13z m33 -1694 c105 -55 154
-131 159 -247 2 -62 -2 -85 -21 -126 -30 -64 -76 -109 -144 -140 l-53 -24
-1007 2 -1007 3 -55 31 c-96 54 -154 167 -143 276 6 61 51 145 98 184 45 36
80 52 139 62 21 4 475 7 1010 6 l971 0 53 -27z"/>
</g>
</svg>
